# xmcd
#
# Track frame offsets:
#	150
#	13392
#	22713
#	33570
#	43550
#	57599
#	71396
#	84067
#	92736
#	102105
#	112534
#	122358
#	132494
#	142851
#	156644
#	167205
#	177440
#	189623
#	206032
#	218322
#	229108
#	242954
#	254382
#	267225
#	279717
#	292135
#
# Disc length: 4029 seconds
#
# Revision: 0
# Processed by: cddbd v1.5.2PL0 Copyright (c) Steve Scherf et al.
# Submitted via: EasyCDDAExtractor 2010.6.0.0
#
DISCID=730fbb1a
DTITLE=Wild Bill Emerson - Got A Hit In My Pocket
DYEAR=1900
DGENRE=
TTITLE0=Got A Hit In My Pocket
TTITLE1=Mississippi Rainstorm
TTITLE2=I've Just Got To Know (How Lovin' You Would Be)
TTITLE3=Harvest Time
TTITLE4=Mother Nature Daughter
TTITLE5=Crawdad
TTITLE6=All I've Got To Lose
TTITLE7=Scottish Lady
TTITLE8=If I Want To
TTITLE9=Texas Bull
TTITLE10=Bull Mountain Rag
TTITLE11=Blue Grass
TTITLE12=Harland County
TTITLE13=Jenny Couldn't Stand To Be Alone
TTITLE14=Doing My Playing At Home
TTITLE15=Another Man's Home
TTITLE16=Just At Dawn
TTITLE17=Jodie's Garden
TTITLE18=Muddy Mississippi River Water
TTITLE19=Widow Julie
TTITLE20=Who's Gonna Tie My Shoes
TTITLE21=Have You Seen My Chicken
TTITLE22=Willie B
TTITLE23=Mother Maybelle
TTITLE24=Judge Her Gently
TTITLE25=Money Makes A Man Careless
EXTD=
EXTT0=
EXTT1=
EXTT2=
EXTT3=
EXTT4=
EXTT5=
EXTT6=
EXTT7=
EXTT8=
EXTT9=
EXTT10=
EXTT11=
EXTT12=
EXTT13=
EXTT14=
EXTT15=
EXTT16=
EXTT17=
EXTT18=
EXTT19=
EXTT20=
EXTT21=
EXTT22=
EXTT23=
EXTT24=
EXTT25=
PLAYORDER=
